<?xml version="1.0" standalone="no"?>
<!DOCTYPE svg PUBLIC "-//W3C//DTD SVG 20010904//EN"
 "http://www.w3.org/TR/2001/REC-SVG-20010904/DTD/svg10.dtd">
<svg version="1.0" xmlns="http://www.w3.org/2000/svg"
 width="1091.000000pt" height="1091.000000pt" viewBox="0 0 1091.000000 1091.000000"
 preserveAspectRatio="xMidYMid meet">
<metadata>
Created by potrace 1.11, written by Peter Selinger 2001-2013
</metadata>
<g transform="translate(0.000000,1091.000000) scale(0.100000,-0.100000)"
fill="#000000" stroke="none">
<path d="M170 10092 c0 -10 74 -87 177 -182 97 -91 213 -199 257 -241 45 -42
122 -113 173 -158 51 -46 93 -86 95 -89 2 -4 48 -47 103 -97 55 -49 114 -103
131 -120 16 -16 55 -52 85 -79 30 -27 90 -84 134 -126 44 -42 105 -99 135
-125 30 -26 113 -102 184 -169 70 -67 132 -123 136 -126 4 -3 61 -55 126 -116
66 -62 139 -130 164 -152 l45 -40 -22 -30 c-345 -467 -603 -1030 -722 -1574
l-19 -87 82 -3 81 -3 3 -812 2 -813 308 -2 307 -3 3 -144 c2 -97 -1 -148 -9
-157 -9 -11 -74 -14 -355 -14 -189 0 -344 -4 -344 -9 0 -20 86 -275 133 -396
65 -165 236 -507 324 -647 110 -175 226 -336 336 -469 715 -860 1714 -1389
2827 -1495 209 -20 703 -14 880 10 570 80 1000 217 1482 474 65 34 150 83 190
108 l72 46 80 -83 c290 -300 279 -284 320 -446 15 -58 63 -212 108 -350 28
-85 33 -93 66 -109 21 -9 79 -36 129 -60 51 -24 98 -44 104 -44 7 0 26 -9 43
-19 17 -11 69 -36 116 -56 131 -57 365 -163 468 -211 52 -24 96 -44 98 -44 3
0 59 -25 124 -55 65 -30 127 -55 138 -55 19 0 59 33 217 175 100 89 375 336
475 425 120 107 272 244 308 278 l33 31 -15 48 c-8 26 -24 125 -36 218 -13 94
-26 193 -30 220 -4 28 -19 138 -34 245 -16 107 -34 205 -42 218 -8 12 -31 33
-52 47 -20 14 -77 54 -127 90 -49 35 -146 103 -215 150 -131 88 -183 125 -344
239 l-97 69 -128 -7 -128 -6 -154 126 c-85 69 -164 136 -176 147 l-22 22 52
83 51 83 27 -78 c57 -163 45 -152 148 -127 93 22 113 46 109 131 l-3 64 -93
50 c-52 27 -98 49 -104 49 -6 0 -19 -7 -28 -15 -9 -9 29 76 85 187 107 213
199 437 259 629 20 64 36 117 36 120 0 2 -160 3 -356 1 -266 -3 -359 -1 -370
8 -21 18 -21 1911 0 1929 11 9 107 11 368 9 297 -3 360 -6 396 -20 l42 -16 -6
37 c-29 166 -135 518 -216 721 -638 1586 -2166 2620 -3873 2620 -126 0 -266
-4 -310 -10 -44 -5 -138 -17 -210 -26 -434 -52 -931 -201 -1319 -396 -502
-252 -946 -597 -1314 -1022 l-33 -38 -63 54 c-78 65 -105 88 -336 279 -102 84
-237 196 -300 249 -63 52 -137 113 -165 134 -27 22 -95 78 -150 126 -55 47
-120 101 -145 120 -25 18 -49 38 -55 44 -5 6 -30 27 -55 46 -25 19 -49 40 -55
46 -5 6 -32 28 -60 50 -27 21 -52 41 -55 44 -3 3 -27 23 -55 45 -27 21 -52 42
-55 45 -3 3 -39 33 -80 67 -41 34 -136 113 -212 176 -161 135 -191 157 -212
157 -9 0 -16 -8 -16 -18z m2907 -3524 c14 -18 415 -1882 411 -1910 -3 -23 -5
-23 -148 -25 -80 -2 -151 1 -157 5 -7 4 -29 92 -49 195 l-36 187 -218 0 c-200
0 -219 -2 -224 -17 -3 -10 -19 -92 -35 -181 -17 -90 -35 -170 -42 -178 -9 -11
-43 -14 -153 -14 -77 0 -147 4 -154 8 -10 7 34 223 194 963 113 525 210 960
216 967 8 9 60 12 198 12 138 0 190 -3 197 -12z m1058 -525 c104 -293 193
-533 197 -533 5 0 8 235 8 523 0 287 4 528 8 535 7 9 46 12 163 10 l154 -3 3
-959 c1 -700 -1 -962 -9 -972 -16 -19 -268 -20 -291 -1 -9 6 -101 249 -204
540 -104 290 -192 527 -196 527 -4 0 -8 -238 -8 -528 0 -397 -3 -531 -12 -540
-17 -17 -289 -17 -306 0 -9 9 -12 236 -12 959 0 521 3 955 6 963 6 14 26 16
158 14 l151 -3 190 -532z m1683 383 c2 -113 -1 -151 -10 -158 -7 -4 -154 -8
-325 -8 l-313 0 0 -245 0 -245 243 0 c176 0 246 -3 255 -12 13 -13 18 -262 6
-292 -5 -14 -37 -16 -255 -16 l-249 0 0 -250 0 -250 323 -2 322 -3 3 -149 c2
-113 -1 -151 -10 -158 -22 -13 -932 -10 -946 4 -9 9 -12 236 -12 959 0 521 3
955 6 963 6 15 55 16 483 14 l476 -3 3 -149z m1120 5 c2 -97 -1 -148 -9 -157
-9 -11 -46 -14 -160 -14 l-149 0 0 -804 c0 -673 -2 -805 -14 -815 -9 -8 -61
-11 -162 -9 l-149 3 -3 813 -2 812 -144 0 c-80 0 -151 3 -160 6 -14 5 -16 28
-16 153 0 81 3 151 7 154 3 4 221 6 482 5 l476 -3 3 -144z m841 133 c117 -32
187 -114 211 -246 7 -37 10 -295 8 -745 -4 -791 0 -755 -93 -848 -80 -81 -121
-90 -395 -90 -274 0 -315 9 -395 90 -93 93 -89 57 -93 848 -2 450 1 708 8 745
24 129 88 207 203 244 74 24 464 26 546 2z m729 -948 c1 -700 -1 -962 -9 -972
-15 -19 -289 -20 -307 -2 -9 9 -12 236 -12 959 0 521 3 955 6 963 6 14 27 16
163 14 l156 -3 3 -959z"/>
<path d="M2870 6134 c0 -6 -34 -194 -75 -419 -41 -224 -73 -410 -71 -412 2 -2
73 -2 158 -1 l154 3 -75 412 c-42 226 -79 415 -83 419 -5 4 -8 3 -8 -2z"/>
<path d="M7373 6246 l-28 -24 -3 -598 c-2 -438 1 -606 9 -627 18 -44 56 -57
164 -57 108 0 146 13 164 57 8 21 11 189 9 627 l-3 598 -28 24 c-26 22 -36 24
-142 24 -106 0 -116 -2 -142 -24z"/>
<path d="M9030 5605 l0 -655 136 0 136 0 29 29 29 29 0 594 c0 541 -1 596 -17
618 -9 14 -22 28 -27 32 -6 4 -73 8 -148 8 l-138 0 0 -655z"/>
<path d="M9705 3724 c-38 -7 -83 -13 -100 -14 -25 -1 -36 -10 -71 -64 -23 -35
-39 -68 -35 -73 7 -12 147 -103 157 -103 4 0 12 -6 18 -14 17 -22 157 -136
166 -136 13 0 30 60 52 180 5 30 14 71 20 92 10 33 8 39 -23 79 -59 76 -61 77
-184 53z"/>
<path d="M10085 3229 c-3 -5 -7 -27 -8 -49 -1 -31 5 -46 28 -70 34 -35 48 -37
75 -10 13 13 33 20 59 20 60 0 60 23 0 70 -28 22 -61 40 -72 41 -12 0 -34 2
-49 4 -15 2 -30 -1 -33 -6z"/>
<path d="M7526 2055 c-20 -14 -39 -25 -41 -25 -16 0 -145 -93 -145 -104 0 -15
1 -15 180 -42 91 -14 128 -25 177 -52 57 -31 83 -35 83 -12 0 5 -18 36 -40 69
-22 33 -40 63 -40 66 0 4 -11 21 -25 39 -14 18 -25 37 -25 43 0 18 -36 43 -62
43 -14 0 -42 -11 -62 -25z"/>
<path d="M7665 1610 c-7 -12 -5 -15 62 -101 102 -132 155 -174 192 -150 8 5
18 36 22 68 5 32 10 67 11 78 3 18 -4 20 -68 25 -39 3 -77 10 -85 16 -42 32
-128 74 -134 64z"/>
</g>
</svg>
